<svg width="32" height="32" viewBox="0 0 32 32" fill="none" xmlns="http://www.w3.org/2000/svg">
<path d="M0.70123 0.970458C0.55506 0.973035 0.438655 1.09362 0.441233 1.23979L0.483242 3.62177C0.48582 3.76794 0.606404 3.88435 0.752574 3.88177C0.898745 3.87919 1.01515 3.75861 1.01257 3.61244L0.975231 1.49512L3.09255 1.45778C3.23872 1.4552 3.35512 1.33462 3.35255 1.18845C3.34997 1.04228 3.22938 0.925872 3.08321 0.928449L0.70123 0.970458ZM30.8743 29.99C30.7691 29.8884 30.6016 29.8914 30.5 29.9966C30.3985 30.1018 30.4015 30.2693 30.5066 30.3709L30.8743 29.99ZM28.2436 28.1863C28.3488 28.2879 28.5164 28.2849 28.6179 28.1797C28.7195 28.0745 28.7165 27.907 28.6113 27.8054L28.2436 28.1863ZM27.4798 26.7132C27.3747 26.6116 27.2071 26.6146 27.1056 26.7198C27.004 26.8249 27.007 26.9925 27.1122 27.094L27.4798 26.7132ZM24.8492 24.9095C24.9543 25.011 25.1219 25.0081 25.2235 24.9029C25.325 24.7977 25.322 24.6301 25.2169 24.5286L24.8492 24.9095ZM24.0854 23.4363C23.9802 23.3348 23.8126 23.3377 23.7111 23.4429C23.6095 23.5481 23.6125 23.7157 23.7177 23.8172L24.0854 23.4363ZM21.4547 21.6327C21.5599 21.7342 21.7274 21.7312 21.829 21.6261C21.9305 21.5209 21.9276 21.3533 21.8224 21.2518L21.4547 21.6327ZM20.6909 20.1595C20.5857 20.058 20.4181 20.0609 20.3166 20.1661C20.2151 20.2713 20.218 20.4389 20.3232 20.5404L20.6909 20.1595ZM18.0602 18.3558C18.1654 18.4574 18.333 18.4544 18.4345 18.3492C18.536 18.2441 18.5331 18.0765 18.4279 17.9749L18.0602 18.3558ZM17.2964 16.8827C17.1912 16.7811 17.0236 16.7841 16.9221 16.8893C16.8206 16.9945 16.8235 17.162 16.9287 17.2636L17.2964 16.8827ZM14.6657 15.079C14.7709 15.1805 14.9385 15.1776 15.04 15.0724C15.1415 14.9672 15.1386 14.7997 15.0334 14.6981L14.6657 15.079ZM13.9019 13.6058C13.7967 13.5043 13.6292 13.5073 13.5276 13.6124C13.4261 13.7176 13.429 13.8852 13.5342 13.9867L13.9019 13.6058ZM11.2712 11.8022C11.3764 11.9037 11.544 11.9008 11.6455 11.7956C11.7471 11.6904 11.7441 11.5228 11.6389 11.4213L11.2712 11.8022ZM10.5074 10.329C10.4023 10.2275 10.2347 10.2304 10.1331 10.3356C10.0316 10.4408 10.0346 10.6084 10.1397 10.7099L10.5074 10.329ZM7.87676 8.52536C7.98194 8.62689 8.14952 8.62394 8.25105 8.51876C8.35259 8.41358 8.34963 8.246 8.24445 8.14447L7.87676 8.52536ZM7.11296 7.05219C7.00778 6.95066 6.8402 6.95361 6.73867 7.05879C6.63713 7.16397 6.64009 7.33155 6.74527 7.43308L7.11296 7.05219ZM4.48228 5.24853C4.58746 5.35007 4.75504 5.34711 4.85657 5.24193C4.95811 5.13675 4.95515 4.96918 4.84997 4.86764L4.48228 5.24853ZM3.71848 3.77536C3.6133 3.67383 3.44572 3.67679 3.34419 3.78197C3.24265 3.88715 3.2456 4.05472 3.35079 4.15626L3.71848 3.77536ZM1.0878 1.97171C1.19298 2.07324 1.36056 2.07029 1.46209 1.96511C1.56363 1.85992 1.56067 1.69235 1.45549 1.59081L1.0878 1.97171ZM31.4401 30.5361L30.8743 29.99L30.5066 30.3709L31.0724 30.917L31.4401 30.5361ZM28.6113 27.8054L27.4798 26.7132L27.1122 27.094L28.2436 28.1863L28.6113 27.8054ZM25.2169 24.5286L24.0854 23.4363L23.7177 23.8172L24.8492 24.9095L25.2169 24.5286ZM21.8224 21.2518L20.6909 20.1595L20.3232 20.5404L21.4547 21.6327L21.8224 21.2518ZM18.4279 17.9749L17.2964 16.8827L16.9287 17.2636L18.0602 18.3558L18.4279 17.9749ZM15.0334 14.6981L13.9019 13.6058L13.5342 13.9867L14.6657 15.079L15.0334 14.6981ZM11.6389 11.4213L10.5074 10.329L10.1397 10.7099L11.2712 11.8022L11.6389 11.4213ZM8.24445 8.14447L7.11296 7.05219L6.74527 7.43308L7.87676 8.52536L8.24445 8.14447ZM4.84997 4.86764L3.71848 3.77536L3.35079 4.15626L4.48228 5.24853L4.84997 4.86764ZM1.45549 1.59081L0.889744 1.04468L0.522053 1.42557L1.0878 1.97171L1.45549 1.59081ZM0.696563 0.705793C0.404221 0.710948 0.171412 0.952116 0.176568 1.24446L0.260585 6.00842C0.265741 6.30076 0.506909 6.53357 0.799251 6.52842C1.09159 6.52326 1.3244 6.28209 1.31924 5.98975L1.24456 1.75512L5.4792 1.68044C5.77154 1.67528 6.00435 1.43411 5.99919 1.14177C5.99404 0.84943 5.75287 0.616621 5.46053 0.621776L0.696563 0.705793ZM31.0582 29.7995C30.8478 29.5965 30.5127 29.6024 30.3096 29.8127C30.1065 30.0231 30.1124 30.3582 30.3228 30.5613L31.0582 29.7995ZM28.0598 28.3768C28.2702 28.5798 28.6053 28.5739 28.8084 28.3636C29.0115 28.1532 29.0055 27.8181 28.7952 27.615L28.0598 28.3768ZM27.6637 26.5227C27.4533 26.3196 27.1182 26.3255 26.9151 26.5359C26.712 26.7463 26.7179 27.0814 26.9283 27.2845L27.6637 26.5227ZM24.6653 25.0999C24.8757 25.303 25.2108 25.2971 25.4139 25.0867C25.617 24.8764 25.6111 24.5412 25.4007 24.3382L24.6653 25.0999ZM24.2692 23.2459C24.0588 23.0428 23.7237 23.0487 23.5206 23.2591C23.3176 23.4694 23.3235 23.8046 23.5338 24.0077L24.2692 23.2459ZM21.2708 21.8231C21.4812 22.0262 21.8164 22.0203 22.0194 21.8099C22.2225 21.5996 22.2166 21.2644 22.0062 21.0613L21.2708 21.8231ZM20.8747 19.9691C20.6644 19.766 20.3292 19.7719 20.1261 19.9823C19.9231 20.1926 19.929 20.5278 20.1393 20.7308L20.8747 19.9691ZM17.8764 18.5463C18.0867 18.7494 18.4219 18.7434 18.6249 18.5331C18.828 18.3227 18.8221 17.9876 18.6117 17.7845L17.8764 18.5463ZM17.4802 16.6922C17.2699 16.4892 16.9347 16.4951 16.7317 16.7054C16.5286 16.9158 16.5345 17.2509 16.7449 17.454L17.4802 16.6922ZM14.4819 15.2695C14.6922 15.4725 15.0274 15.4666 15.2305 15.2563C15.4335 15.0459 15.4276 14.7107 15.2173 14.5077L14.4819 15.2695ZM14.0858 13.4154C13.8754 13.2123 13.5402 13.2182 13.3372 13.4286C13.1341 13.639 13.14 13.9741 13.3504 14.1772L14.0858 13.4154ZM11.0874 11.9926C11.2978 12.1957 11.6329 12.1898 11.836 11.9794C12.039 11.7691 12.0331 11.4339 11.8228 11.2308L11.0874 11.9926ZM10.6913 10.1386C10.4809 9.9355 10.1458 9.94141 9.9427 10.1518C9.73963 10.3621 9.74554 10.6973 9.9559 10.9004L10.6913 10.1386ZM7.69291 8.71581C7.90327 8.91888 8.23843 8.91296 8.4415 8.7026C8.64457 8.49224 8.63866 8.15709 8.4283 7.95402L7.69291 8.71581ZM7.2968 6.86174C7.08644 6.65867 6.75129 6.66458 6.54822 6.87495C6.34515 7.08531 6.35106 7.42046 6.56142 7.62353L7.2968 6.86174ZM4.29843 5.43898C4.50879 5.64205 4.84395 5.63614 5.04702 5.42578C5.25009 5.21542 5.24418 4.88026 5.03382 4.67719L4.29843 5.43898ZM3.90232 3.58492C3.69196 3.38185 3.35681 3.38776 3.15374 3.59812C2.95067 3.80848 2.95658 4.14364 3.16694 4.3467L3.90232 3.58492ZM0.903953 2.16215C1.11431 2.36522 1.44947 2.35931 1.65254 2.14895C1.85561 1.93859 1.8497 1.60344 1.63934 1.40037L0.903953 2.16215ZM31.6239 30.3457L31.0582 29.7995L30.3228 30.5613L30.8885 31.1075L31.6239 30.3457ZM28.7952 27.615L27.6637 26.5227L26.9283 27.2845L28.0598 28.3768L28.7952 27.615ZM25.4007 24.3382L24.2692 23.2459L23.5338 24.0077L24.6653 25.0999L25.4007 24.3382ZM22.0062 21.0613L20.8747 19.9691L20.1393 20.7308L21.2708 21.8231L22.0062 21.0613ZM18.6117 17.7845L17.4802 16.6922L16.7449 17.454L17.8764 18.5463L18.6117 17.7845ZM15.2173 14.5077L14.0858 13.4154L13.3504 14.1772L14.4819 15.2695L15.2173 14.5077ZM11.8228 11.2308L10.6913 10.1386L9.9559 10.9004L11.0874 11.9926L11.8228 11.2308ZM8.4283 7.95402L7.2968 6.86174L6.56142 7.62353L7.69291 8.71581L8.4283 7.95402ZM5.03382 4.67719L3.90232 3.58492L3.16694 4.3467L4.29843 5.43898L5.03382 4.67719ZM1.63934 1.40037L1.07359 0.854229L0.338207 1.61602L0.903953 2.16215L1.63934 1.40037Z" fill="#FF0000"/>
</svg>
