<svg width="38" height="16" viewBox="0 0 38 16" fill="none" xmlns="http://www.w3.org/2000/svg">
<path d="M37.1191 13.2364C37.2496 13.1707 37.3022 13.0115 37.2364 12.8809L36.1649 10.7532C36.0991 10.6226 35.9399 10.5701 35.8094 10.6358C35.6788 10.7016 35.6263 10.8607 35.692 10.9913L36.6445 12.8826L34.7532 13.8352C34.6226 13.9009 34.5701 14.0601 34.6358 14.1906C34.7016 14.3212 34.8607 14.3737 34.9913 14.308L37.1191 13.2364ZM0.975792 1.38614C1.11462 1.43197 1.26431 1.35658 1.31014 1.21776C1.35597 1.07893 1.28058 0.929243 1.14176 0.883413L0.975792 1.38614ZM4.20058 1.89322C4.06176 1.84739 3.91207 1.92278 3.86624 2.0616C3.82041 2.20042 3.8958 2.35012 4.03462 2.39594L4.20058 1.89322ZM5.56403 2.90085C5.70286 2.94668 5.85255 2.87129 5.89838 2.73247C5.94421 2.59364 5.86882 2.44395 5.73 2.39812L5.56403 2.90085ZM8.78883 3.40793C8.65 3.3621 8.50031 3.43749 8.45448 3.57631C8.40865 3.71513 8.48404 3.86482 8.62286 3.91065L8.78883 3.40793ZM10.1523 4.41556C10.2911 4.46139 10.4408 4.386 10.4866 4.24718C10.5325 4.10835 10.4571 3.95866 10.3182 3.91283L10.1523 4.41556ZM13.3771 4.92264C13.2382 4.87681 13.0886 4.9522 13.0427 5.09102C12.9969 5.22984 13.0723 5.37953 13.2111 5.42536L13.3771 4.92264ZM14.7405 5.93027C14.8793 5.9761 15.029 5.90071 15.0749 5.76189C15.1207 5.62306 15.0453 5.47337 14.9065 5.42754L14.7405 5.93027ZM17.9653 6.43735C17.8265 6.39152 17.6768 6.46691 17.631 6.60573C17.5851 6.74455 17.6605 6.89424 17.7993 6.94007L17.9653 6.43735ZM19.3288 7.44498C19.4676 7.49081 19.6173 7.41542 19.6631 7.2766C19.7089 7.13777 19.6335 6.98808 19.4947 6.94225L19.3288 7.44498ZM22.5536 7.95206C22.4147 7.90623 22.265 7.98161 22.2192 8.12044C22.1734 8.25926 22.2488 8.40895 22.3876 8.45478L22.5536 7.95206ZM23.917 8.95969C24.0558 9.00552 24.2055 8.93013 24.2513 8.79131C24.2972 8.65248 24.2218 8.50279 24.083 8.45696L23.917 8.95969ZM27.1418 9.46677C27.003 9.42094 26.8533 9.49632 26.8075 9.63515C26.7616 9.77397 26.837 9.92366 26.9758 9.96949L27.1418 9.46677ZM28.5052 10.4744C28.6441 10.5202 28.7938 10.4448 28.8396 10.306C28.8854 10.1672 28.81 10.0175 28.6712 9.97167L28.5052 10.4744ZM31.73 10.9815C31.5912 10.9356 31.4415 11.011 31.3957 11.1499C31.3499 11.2887 31.4252 11.4384 31.5641 11.4842L31.73 10.9815ZM33.0935 11.9891C33.2323 12.0349 33.382 11.9595 33.4278 11.8207C33.4737 11.6819 33.3983 11.5322 33.2594 11.4864L33.0935 11.9891ZM36.3183 12.4962C36.1795 12.4504 36.0298 12.5257 35.9839 12.6646C35.9381 12.8034 36.0135 12.9531 36.1523 12.9989L36.3183 12.4962ZM0.211085 1.13369L0.975792 1.38614L1.14176 0.883413L0.377049 0.630962L0.211085 1.13369ZM4.03462 2.39594L5.56403 2.90085L5.73 2.39812L4.20058 1.89322L4.03462 2.39594ZM8.62286 3.91065L10.1523 4.41556L10.3182 3.91283L8.78883 3.40793L8.62286 3.91065ZM13.2111 5.42536L14.7405 5.93027L14.9065 5.42754L13.3771 4.92264L13.2111 5.42536ZM17.7993 6.94007L19.3288 7.44498L19.4947 6.94225L17.9653 6.43735L17.7993 6.94007ZM22.3876 8.45478L23.917 8.95969L24.083 8.45696L22.5536 7.95206L22.3876 8.45478ZM26.9758 9.96949L28.5052 10.4744L28.6712 9.97167L27.1418 9.46677L26.9758 9.96949ZM31.5641 11.4842L33.0935 11.9891L33.2594 11.4864L31.73 10.9815L31.5641 11.4842ZM36.1523 12.9989L36.917 13.2514L37.083 12.7486L36.3183 12.4962L36.1523 12.9989ZM37.2381 13.4728C37.4993 13.3413 37.6044 13.023 37.4728 12.7619L35.3297 8.50636C35.1982 8.24522 34.8799 8.14014 34.6187 8.27165C34.3576 8.40317 34.2525 8.72147 34.384 8.98261L36.289 12.7653L32.5064 14.6703C32.2452 14.8018 32.1401 15.1201 32.2717 15.3813C32.4032 15.6424 32.7215 15.7475 32.9826 15.616L37.2381 13.4728ZM0.89281 1.6375C1.17046 1.72916 1.46984 1.57839 1.5615 1.30074C1.65316 1.02309 1.50239 0.72371 1.22474 0.63205L0.89281 1.6375ZM4.28357 1.64186C4.00592 1.5502 3.70654 1.70097 3.61488 1.97862C3.52322 2.25627 3.67399 2.55565 3.95164 2.64731L4.28357 1.64186ZM5.48105 3.15221C5.7587 3.24387 6.05808 3.0931 6.14974 2.81545C6.2414 2.5378 6.09063 2.23842 5.81298 2.14676L5.48105 3.15221ZM8.87181 3.15657C8.59416 3.06491 8.29478 3.21568 8.20312 3.49333C8.11146 3.77098 8.26223 4.07036 8.53988 4.16202L8.87181 3.15657ZM10.0693 4.66692C10.3469 4.75858 10.6463 4.60781 10.738 4.33016C10.8296 4.05251 10.6789 3.75313 10.4012 3.66147L10.0693 4.66692ZM13.46 4.67128C13.1824 4.57962 12.883 4.73039 12.7914 5.00804C12.6997 5.28568 12.8505 5.58507 13.1281 5.67673L13.46 4.67128ZM14.6575 6.18163C14.9352 6.27329 15.2346 6.12252 15.3262 5.84487C15.4179 5.56722 15.2671 5.26784 14.9895 5.17618L14.6575 6.18163ZM18.0483 6.18599C17.7706 6.09433 17.4713 6.2451 17.3796 6.52275C17.2879 6.80039 17.4387 7.09978 17.7164 7.19144L18.0483 6.18599ZM19.2458 7.69634C19.5234 7.788 19.8228 7.63723 19.9145 7.35958C20.0061 7.08193 19.8554 6.78255 19.5777 6.69089L19.2458 7.69634ZM22.6365 7.7007C22.3589 7.60904 22.0595 7.75981 21.9678 8.03746C21.8762 8.3151 22.027 8.61449 22.3046 8.70615L22.6365 7.7007ZM23.834 9.21105C24.1117 9.30271 24.4111 9.15194 24.5027 8.87429C24.5944 8.59664 24.4436 8.29726 24.1659 8.2056L23.834 9.21105ZM27.2248 9.2154C26.9471 9.12375 26.6477 9.27452 26.5561 9.55217C26.4644 9.82981 26.6152 10.1292 26.8928 10.2209L27.2248 9.2154ZM28.4223 10.7258C28.6999 10.8174 28.9993 10.6666 29.091 10.389C29.1826 10.1114 29.0318 9.81197 28.7542 9.72031L28.4223 10.7258ZM31.813 10.7301C31.5354 10.6385 31.236 10.7892 31.1443 11.0669C31.0527 11.3445 31.2034 11.6439 31.4811 11.7356L31.813 10.7301ZM33.0105 12.2405C33.2882 12.3321 33.5875 12.1814 33.6792 11.9037C33.7709 11.6261 33.6201 11.3267 33.3424 11.235L33.0105 12.2405ZM36.4013 12.2448C36.1236 12.1532 35.8242 12.3039 35.7326 12.5816C35.6409 12.8592 35.7917 13.1586 36.0693 13.2503L36.4013 12.2448ZM0.128103 1.38505L0.89281 1.6375L1.22474 0.63205L0.460031 0.379599L0.128103 1.38505ZM3.95164 2.64731L5.48105 3.15221L5.81298 2.14676L4.28357 1.64186L3.95164 2.64731ZM8.53988 4.16202L10.0693 4.66692L10.4012 3.66147L8.87181 3.15657L8.53988 4.16202ZM13.1281 5.67673L14.6575 6.18163L14.9895 5.17618L13.46 4.67128L13.1281 5.67673ZM17.7164 7.19144L19.2458 7.69634L19.5777 6.69089L18.0483 6.18599L17.7164 7.19144ZM22.3046 8.70615L23.834 9.21105L24.1659 8.2056L22.6365 7.7007L22.3046 8.70615ZM26.8928 10.2209L28.4223 10.7258L28.7542 9.72031L27.2248 9.2154L26.8928 10.2209ZM31.4811 11.7356L33.0105 12.2405L33.3424 11.235L31.813 10.7301L31.4811 11.7356ZM36.0693 13.2503L36.834 13.5027L37.166 12.4973L36.4013 12.2448L36.0693 13.2503Z" fill="#FF0000"/>
</svg>
