<svg width="11" height="15" viewBox="0 0 11 15" fill="none" xmlns="http://www.w3.org/2000/svg">
<path d="M7.30631 0.837837C7.21675 0.66867 7.00701 0.604135 6.83784 0.693694L4.08109 2.15315C3.91192 2.24271 3.84738 2.45245 3.93694 2.62162C4.0265 2.79079 4.23624 2.85532 4.40541 2.76576L6.85586 1.46847L8.15315 3.91891C8.24271 4.08808 8.45245 4.15262 8.62162 4.06306C8.79079 3.9735 8.85532 3.76376 8.76576 3.59459L7.30631 0.837837ZM3.55348 13.3797C3.60977 13.1968 3.5071 13.0028 3.32415 12.9465C3.1412 12.8902 2.94726 12.9929 2.89097 13.1759L3.55348 13.3797ZM3.77985 10.287C3.72356 10.4699 3.82624 10.6639 4.00919 10.7201C4.19213 10.7764 4.38608 10.6738 4.44237 10.4908L3.77985 10.287ZM4.88681 9.04637C4.9431 8.86342 4.84043 8.66948 4.65748 8.61319C4.47453 8.5569 4.28059 8.65957 4.2243 8.84252L4.88681 9.04637ZM5.11319 5.95363C5.0569 6.13658 5.15957 6.33052 5.34252 6.38681C5.52547 6.4431 5.71941 6.34043 5.7757 6.15748L5.11319 5.95363ZM6.22015 4.71304C6.27644 4.53009 6.17376 4.33615 5.99081 4.27985C5.80787 4.22356 5.61392 4.32624 5.55763 4.50919L6.22015 4.71304ZM6.44652 1.6203C6.39023 1.80324 6.4929 1.99719 6.67585 2.05348C6.8588 2.10977 7.05274 2.00709 7.10903 1.82415L6.44652 1.6203ZM3.33126 14.1019L3.55348 13.3797L2.89097 13.1759L2.66874 13.8981L3.33126 14.1019ZM4.44237 10.4908L4.88681 9.04637L4.2243 8.84252L3.77985 10.287L4.44237 10.4908ZM5.7757 6.15748L6.22015 4.71304L5.55763 4.50919L5.11319 5.95363L5.7757 6.15748ZM7.10903 1.82415L7.33126 1.10192L6.66874 0.898074L6.44652 1.6203L7.10903 1.82415ZM7.61261 0.675676C7.43349 0.33734 7.01401 0.208269 6.67568 0.387388L1.16217 3.3063C0.823838 3.48542 0.694768 3.9049 0.873887 4.24324C1.05301 4.58157 1.47249 4.71064 1.81082 4.53152L6.71171 1.93693L9.3063 6.83783C9.48542 7.17616 9.9049 7.30523 10.2432 7.12611C10.5816 6.94699 10.7106 6.52751 10.5315 6.18918L7.61261 0.675676ZM3.88474 13.4816C3.99732 13.1157 3.79197 12.7278 3.42607 12.6153C3.06018 12.5027 2.67229 12.708 2.55971 13.0739L3.88474 13.4816ZM3.4486 10.185C3.33601 10.5509 3.54136 10.9388 3.90726 11.0514C4.27316 11.164 4.66104 10.9586 4.77362 10.5927L3.4486 10.185ZM5.21807 9.14829C5.33065 8.7824 5.1253 8.39451 4.75941 8.28193C4.39351 8.16935 4.00563 8.3747 3.89304 8.74059L5.21807 9.14829ZM4.78193 5.8517C4.66935 6.2176 4.8747 6.60548 5.24059 6.71807C5.60649 6.83065 5.99437 6.6253 6.10696 6.25941L4.78193 5.8517ZM6.5514 4.81496C6.66399 4.44906 6.45864 4.06118 6.09274 3.9486C5.72684 3.83601 5.33896 4.04136 5.22638 4.40726L6.5514 4.81496ZM6.11526 1.51837C6.00268 1.88427 6.20803 2.27215 6.57393 2.38473C6.93982 2.49732 7.32771 2.29197 7.44029 1.92607L6.11526 1.51837ZM3.66251 14.2039L3.88474 13.4816L2.55971 13.0739L2.33749 13.7961L3.66251 14.2039ZM4.77362 10.5927L5.21807 9.14829L3.89304 8.74059L3.4486 10.185L4.77362 10.5927ZM6.10696 6.25941L6.5514 4.81496L5.22638 4.40726L4.78193 5.8517L6.10696 6.25941ZM7.44029 1.92607L7.66251 1.20385L6.33749 0.796149L6.11526 1.51837L7.44029 1.92607Z" fill="#2D72CD"/>
</svg>
