<svg width="12" height="15" viewBox="0 0 12 15" fill="none" xmlns="http://www.w3.org/2000/svg">
<path d="M3.81397 6.22443C3.81397 4.98025 4.82258 3.97164 6.06676 3.97164C7.31094 3.97164 8.31955 4.98025 8.31955 6.22443C8.31955 7.46861 7.31094 8.47721 6.06676 8.47721C4.82258 8.47721 3.81397 7.46861 3.81397 6.22443Z" fill="#2D72CD"/>
<path fill-rule="evenodd" clip-rule="evenodd" d="M0.364466 5.44627C0.602665 2.5565 3.01751 0.33252 5.91708 0.33252H6.21648C9.11605 0.33252 11.5309 2.5565 11.7691 5.44627C11.8973 7.00215 11.4167 8.54707 10.4285 9.75564L7.10614 13.8188C6.56896 14.4758 5.56461 14.4758 5.02742 13.8188L1.70504 9.75564C0.716819 8.54707 0.236218 7.00215 0.364466 5.44627ZM6.06676 2.93189C4.24834 2.93189 2.77423 4.40601 2.77423 6.22443C2.77423 8.04284 4.24834 9.51696 6.06676 9.51696C7.88518 9.51696 9.3593 8.04284 9.3593 6.22443C9.3593 4.40601 7.88518 2.93189 6.06676 2.93189Z" fill="#2D72CD"/>
</svg>
