<svg width="9" height="12" viewBox="0 0 9 12" fill="none" xmlns="http://www.w3.org/2000/svg">
<path d="M2.86764 4.88257C2.86764 3.93231 3.63798 3.16198 4.58823 3.16198C5.53849 3.16198 6.30882 3.93231 6.30882 4.88257C6.30882 5.83282 5.53849 6.60316 4.58823 6.60316C3.63798 6.60316 2.86764 5.83282 2.86764 4.88257Z" fill="#FF0000"/>
<path fill-rule="evenodd" clip-rule="evenodd" d="M0.233049 4.28825C0.414976 2.08116 2.25934 0.382568 4.47391 0.382568H4.70258C6.91716 0.382568 8.76152 2.08116 8.94344 4.28825C9.04139 5.47656 8.67433 6.65651 7.91957 7.57956L5.38207 10.6829C4.97179 11.1846 4.20471 11.1846 3.79443 10.6829L1.25692 7.57956C0.502162 6.65651 0.135099 5.47656 0.233049 4.28825ZM4.58823 2.36786C3.1994 2.36786 2.07353 3.49373 2.07353 4.88257C2.07353 6.2714 3.1994 7.39727 4.58823 7.39727C5.97707 7.39727 7.10294 6.2714 7.10294 4.88257C7.10294 3.49373 5.97707 2.36786 4.58823 2.36786Z" fill="#FF0000"/>
</svg>
