<svg width="24" height="24" viewBox="0 0 24 24" fill="none" xmlns="http://www.w3.org/2000/svg">
<path fill-rule="evenodd" clip-rule="evenodd" d="M9.47088 1.67785C10.2814 1.47993 11.1285 1.375 12 1.375C17.868 1.375 22.625 6.13197 22.625 12C22.625 12.8715 22.5201 13.7186 22.3221 14.5291C22.9086 15.4171 23.25 16.4812 23.25 17.625C23.25 20.7316 20.7316 23.25 17.625 23.25C16.4812 23.25 15.4171 22.9086 14.5291 22.3221C13.7186 22.5201 12.8715 22.625 12 22.625C6.13197 22.625 1.375 17.868 1.375 12C1.375 11.1285 1.47993 10.2814 1.67785 9.47088C1.0914 8.58288 0.75 7.51881 0.75 6.375C0.75 3.2684 3.2684 0.75 6.375 0.75C7.51881 0.75 8.58288 1.0914 9.47088 1.67785ZM13.8802 11.0906C14.347 11.2298 14.7919 11.434 15.2018 11.6972C15.6205 11.9724 15.9695 12.3422 16.2215 12.7753C16.4824 13.255 16.6146 13.7942 16.6051 14.3402C16.6271 15.0446 16.4172 15.7366 16.0078 16.3102C15.577 16.8989 14.9857 17.3509 14.3047 17.6123C13.5721 17.9047 12.7878 18.0456 11.9992 18.0265C11.0712 18.0526 10.1507 17.8537 9.31633 17.4466C8.76796 17.1579 8.29715 16.7415 7.94368 16.2324C7.59001 15.7431 7.39185 15.1586 7.37498 14.555C7.37498 14.2837 7.48275 14.0236 7.67457 13.8317C7.86639 13.6399 8.12655 13.5322 8.39782 13.5322C8.6691 13.5322 8.92926 13.6399 9.12108 13.8317C9.3129 14.0236 9.42066 14.2837 9.42066 14.555C9.44167 14.742 9.51309 14.9199 9.62728 15.0695C9.78996 15.3033 10.0059 15.4951 10.2573 15.629C10.8017 15.8833 11.3989 16.0039 11.9992 15.9808C12.5184 15.9978 13.0356 15.9101 13.5202 15.7231C13.8453 15.6063 14.13 15.3986 14.3405 15.1247C14.4964 14.9072 14.5736 14.6432 14.5594 14.376C14.5702 14.1696 14.5286 13.9638 14.4387 13.7776C14.3458 13.6251 14.2187 13.4962 14.0674 13.4012C13.8249 13.2483 13.5622 13.1299 13.287 13.0494C13.063 12.9808 12.8185 12.9144 12.5649 12.8489L12.5465 12.8469C12.5351 12.8431 12.5193 12.8393 12.5052 12.8359C12.5002 12.8347 12.4955 12.8336 12.4912 12.8325C12.3255 12.7906 12.1598 12.7487 11.9829 12.7098C11.5308 12.6126 11.2178 12.5339 11.0214 12.4745C11.017 12.4734 11.0131 12.4708 11.0092 12.4682C11.006 12.4659 11.0026 12.4637 10.9989 12.4623C10.5447 12.3522 10.0982 12.2128 9.66205 12.0449C9.08486 11.8134 8.57793 11.4355 8.19121 10.9485C7.79064 10.4228 7.58137 9.77621 7.59796 9.11553C7.5981 8.4519 7.81504 7.80648 8.21576 7.27749C8.63414 6.74549 9.1928 6.34092 9.82878 6.10941C10.532 5.85668 11.2757 5.73533 12.0228 5.75141C12.6105 5.74491 13.1959 5.82628 13.7595 5.9928C14.2478 6.13519 14.7053 6.36723 15.1087 6.67708C15.4578 6.94202 15.7491 7.27546 15.9648 7.65696C16.0295 7.77531 16.0702 7.90529 16.0845 8.03942C16.0988 8.17356 16.0864 8.30919 16.048 8.43851C16.0097 8.56784 15.9461 8.6883 15.861 8.79297C15.776 8.89763 15.671 8.98444 15.5522 9.04838C15.4335 9.11231 15.3032 9.15213 15.169 9.16553C15.0348 9.17893 14.8992 9.16564 14.7701 9.12644C14.6411 9.08724 14.521 9.0229 14.4169 8.93712C14.3128 8.85133 14.2267 8.74581 14.1636 8.62661C14.0764 8.48936 13.9635 8.37024 13.8311 8.27578C13.6265 8.12656 13.3968 8.01503 13.153 7.94643C12.7854 7.84107 12.4041 7.79075 12.0217 7.79709C11.5276 7.78252 11.0348 7.85737 10.5673 8.01802C10.2893 8.11271 10.042 8.28055 9.85128 8.50387C9.71505 8.67823 9.64122 8.89324 9.6416 9.11451C9.62488 9.32088 9.68296 9.52637 9.80525 9.69344C9.97235 9.89761 10.1894 10.0551 10.4353 10.1506C10.9125 10.3344 11.4037 10.4794 11.9041 10.5843C12.3235 10.6764 12.6631 10.7582 12.9495 10.838C13.2768 10.9188 13.5938 11.0037 13.8802 11.0906Z" fill="#323B48"/>
</svg>
