<svg width="25" height="22" viewBox="0 0 25 22" fill="none" xmlns="http://www.w3.org/2000/svg">
<path fill-rule="evenodd" clip-rule="evenodd" d="M21.1039 19.9125L21.1048 19.9104L21.1265 19.8579L24.875 1.58901V1.52967C24.875 1.07449 24.701 0.677116 24.3224 0.438761C23.991 0.230128 23.6101 0.21527 23.3429 0.23487C23.0604 0.255598 22.794 0.323767 22.6096 0.380511C22.5147 0.409703 22.4353 0.437832 22.3785 0.459107C22.35 0.469784 22.3269 0.478845 22.3101 0.485595L22.2936 0.49231L1.39385 8.41769L1.3881 8.41969C1.37681 8.42366 1.36188 8.42904 1.34385 8.43582C1.30791 8.44935 1.25898 8.4687 1.20151 8.49388C1.08866 8.54332 0.932738 8.61962 0.77461 8.7243C0.506044 8.90208 -0.0053485 9.32297 0.0810042 9.99024C0.15253 10.5429 0.546659 10.894 0.81237 11.0757C0.954806 11.1731 1.09107 11.2434 1.19086 11.2893C1.24142 11.3126 1.28436 11.3304 1.31635 11.343C1.33238 11.3493 1.34579 11.3543 1.35617 11.3581L1.36945 11.3629L1.37794 11.366L5.03449 12.556C5.02215 12.7777 5.0449 13.0038 5.10574 13.2269L6.93735 19.9434C7.15452 20.7397 7.8998 21.2944 8.75176 21.2938C9.51542 21.2933 10.1927 20.8467 10.4804 20.1804L13.34 17.2247L18.2513 20.8645L18.3211 20.894C18.7673 21.0822 19.1842 21.1418 19.5653 21.0915C19.946 21.0412 20.2484 20.887 20.4756 20.7112C20.6992 20.5383 20.8524 20.3432 20.9488 20.1963C20.9977 20.1216 21.0342 20.056 21.0596 20.0066C21.0723 19.9818 21.0823 19.9608 21.0898 19.9445L21.0992 19.9235L21.1026 19.9157L21.1039 19.9125ZM6.91874 12.7649C6.87711 12.6123 6.94246 12.4511 7.08032 12.3665L19.4828 4.7529C19.4828 4.7529 20.2123 4.32479 20.1863 4.7529C20.1863 4.7529 20.3164 4.8285 19.9255 5.18101C19.5548 5.5158 11.0859 13.4196 10.229 14.2194C10.1796 14.2655 10.15 14.3185 10.1326 14.3828L8.75035 19.4813L6.91874 12.7649Z" fill="#323B48"/>
</svg>
