<svg width="35" height="35" viewBox="0 0 35 35" fill="none" xmlns="http://www.w3.org/2000/svg">
<path d="M29.6477 5.50803C27.2605 3.12085 24.219 1.49516 20.9079 0.836542C17.5968 0.17792 14.1648 0.515949 11.0458 1.80788C7.92676 3.09981 5.2609 5.28763 3.38531 8.09465C1.50971 10.9017 0.508617 14.2018 0.508617 17.5778C0.508616 20.9538 1.50971 24.254 3.38531 27.061C5.2609 29.868 7.92676 32.0558 11.0458 33.3478C14.1648 34.6397 17.5968 34.9777 20.9079 34.3191C24.219 33.6605 27.2605 32.0348 29.6477 29.6476C31.2327 28.0626 32.49 26.1809 33.3478 24.11C34.2056 22.039 34.6472 19.8194 34.6472 17.5778C34.6472 15.3363 34.2056 13.1166 33.3478 11.0457C32.49 8.97477 31.2327 7.09306 29.6477 5.50803ZM7.92205 27.2337C6.0123 25.3239 4.71175 22.8908 4.18485 20.2419C3.65796 17.593 3.92838 14.8473 4.96193 12.3521C5.99547 9.85693 7.74572 7.72424 9.99134 6.22377C12.237 4.72329 14.8771 3.92241 17.5779 3.92241C20.2787 3.92241 22.9188 4.72329 25.1644 6.22377C27.4101 7.72424 29.1603 9.85693 30.1938 12.3521C31.2274 14.8473 31.4978 17.593 30.9709 20.2419C30.444 22.8908 29.1435 25.3239 27.2337 27.2337C24.6728 29.7946 21.1995 31.2332 17.5779 31.2332C13.9562 31.2332 10.4829 29.7946 7.92205 27.2337ZM23.6128 21.1988L19.9918 17.5778L23.6128 13.9569C23.9329 13.6368 24.1127 13.2026 24.1127 12.7499C24.1127 12.2972 23.9329 11.863 23.6128 11.5429C23.2927 11.2228 22.8585 11.043 22.4058 11.043C21.9531 11.043 21.5189 11.2228 21.1988 11.5429L17.5779 15.1639L13.9569 11.5429C13.6368 11.2228 13.2027 11.043 12.75 11.043C12.2973 11.043 11.8631 11.2228 11.543 11.5429C11.2229 11.863 11.043 12.2972 11.043 12.7499C11.043 13.2026 11.2229 13.6368 11.543 13.9569L15.1639 17.5778L11.543 21.1988C11.2229 21.5189 11.043 21.953 11.043 22.4058C11.043 22.8585 11.2229 23.2926 11.543 23.6127C11.8631 23.9328 12.2973 24.1127 12.75 24.1127C13.2027 24.1127 13.6368 23.9328 13.9569 23.6127L17.5779 19.9918L21.1988 23.6127C21.5189 23.9328 21.9531 24.1127 22.4058 24.1127C22.8585 24.1127 23.2927 23.9328 23.6128 23.6127C23.9329 23.2926 24.1127 22.8585 24.1127 22.4058C24.1127 21.953 23.9329 21.5189 23.6128 21.1988Z" fill="#FF0000"/>
</svg>
