<svg width="24" height="27" viewBox="0 0 24 27" fill="none" xmlns="http://www.w3.org/2000/svg">
<path fill-rule="evenodd" clip-rule="evenodd" d="M17.8454 1.28431C13.9126 0.405229 9.83432 0.405229 5.90158 1.28431L5.4778 1.37904C3.22181 1.88332 1.44125 3.61365 0.872634 5.85429C-0.124211 9.7824 -0.124211 13.8973 0.872634 17.8254C1.41579 19.9657 3.06482 21.6404 5.17775 22.2256L5.75858 25.6953C5.79619 25.92 5.95308 26.1064 6.16803 26.1819C6.38299 26.2573 6.62197 26.2098 6.79175 26.0579L10.2051 23.0038C12.7607 23.1598 15.3327 22.957 17.8454 22.3954L18.2692 22.3006C20.5251 21.7964 22.3057 20.066 22.8743 17.8254C23.8712 13.8973 23.8712 9.7824 22.8743 5.85429C22.3057 3.61365 20.5252 1.88332 18.2692 1.37904L17.8454 1.28431ZM6.9559 5.75226C6.72371 5.71833 6.4869 5.76494 6.28489 5.88433H6.26766C5.79866 6.15924 5.37616 6.50671 5.01586 6.91382C4.71645 7.25999 4.55403 7.61026 4.51137 7.94741C4.48594 8.14839 4.50317 8.34937 4.56305 8.54132L4.58438 8.55444C4.92153 9.54538 5.36204 10.4986 5.90016 11.396C6.59334 12.6568 7.44641 13.8228 8.43821 14.8651L8.46774 14.9078L8.5145 14.9422L8.54403 14.9767L8.57848 15.0062C9.62457 16.0009 10.7934 16.858 12.0566 17.5566C13.5004 18.3424 14.3764 18.714 14.9023 18.8682V18.8764C15.0565 18.9232 15.1968 18.9445 15.3379 18.9445C15.786 18.9117 16.2102 18.7298 16.5429 18.4277C16.9481 18.0673 17.2917 17.6431 17.5601 17.1718V17.1636C17.8119 16.6895 17.7266 16.2408 17.3632 15.9373C16.6354 15.3011 15.8484 14.7361 15.013 14.2499C14.4536 13.9464 13.8851 14.1301 13.6546 14.4377L13.1632 15.0571C12.9114 15.3647 12.4536 15.322 12.4536 15.322L12.4405 15.3302C9.02719 14.4582 8.11664 11.0023 8.11664 11.0023C8.11664 11.0023 8.07399 10.5322 8.38981 10.2927L9.00504 9.79722C9.29953 9.55768 9.50461 8.99003 9.18879 8.42976C8.70596 7.59316 8.14216 6.80599 7.50551 6.07956C7.36633 5.9083 7.17107 5.79179 6.95426 5.75062L6.9559 5.75226ZM12.7241 4.24999C12.3789 4.24999 12.0991 4.52981 12.0991 4.87499C12.0991 5.22017 12.3789 5.49999 12.7241 5.49999C14.3047 5.49999 15.6181 6.01664 16.6556 7.00593C17.1897 7.54767 17.6055 8.18893 17.8785 8.89067C18.1525 9.59504 18.2771 10.3461 18.2451 11.0984C18.2304 11.4433 18.4981 11.7348 18.843 11.7494C19.1879 11.7641 19.4793 11.4964 19.494 11.1515C19.5333 10.226 19.3799 9.30255 19.0434 8.43749C18.7069 7.57247 18.1947 6.78421 17.5384 6.12059L17.5258 6.10857C16.2384 4.87729 14.6064 4.24999 12.7241 4.24999ZM12.6815 6.3054C12.3363 6.3054 12.0565 6.58522 12.0565 6.9304C12.0565 7.27558 12.3363 7.5554 12.6815 7.5554H12.7019C13.8425 7.63578 14.6724 8.01595 15.2542 8.64C15.8498 9.2827 16.1584 10.081 16.1356 11.0687C16.1276 11.4138 16.4008 11.7 16.7459 11.708C17.091 11.716 17.3772 11.4427 17.3852 11.0976C17.4152 9.80076 16.9982 8.68247 16.1703 7.78956L16.1693 7.78838C15.3235 6.88077 14.1632 6.40064 12.7652 6.3068L12.7443 6.3054H12.6815ZM12.6579 8.39834C12.3132 8.3802 12.019 8.64492 12.0009 8.98962C11.9827 9.33432 12.2475 9.62847 12.5922 9.64661C13.1155 9.67416 13.4491 9.83112 13.6588 10.0429C13.8695 10.2556 14.0271 10.5962 14.0558 11.1303C14.0743 11.4749 14.3688 11.7393 14.7134 11.7208C15.0581 11.7023 15.3225 11.4078 15.304 11.0631C15.2636 10.3131 15.0289 9.65001 14.547 9.16335C14.0641 8.67577 13.4048 8.43766 12.6579 8.39834Z" fill="#323B48"/>
</svg>
