<svg width="122" height="123" viewBox="0 0 122 123" fill="none" xmlns="http://www.w3.org/2000/svg">
<rect x="52" y="46.7954" width="24" height="64" fill="white"/>
<path fill-rule="evenodd" clip-rule="evenodd" d="M49.4589 34.0911C55.0097 25.9696 66.9901 25.9696 72.5409 34.0911L74.7365 37.3035C88.4922 57.4295 100.311 78.8131 110.034 101.168L110.492 102.222C113.919 110.1 108.742 119.046 100.205 120C74.1492 122.912 47.8506 122.912 21.7953 120C13.2576 119.046 8.0809 110.1 11.5074 102.222L11.9659 101.168C21.689 78.8132 33.5075 57.4295 47.2633 37.3035L49.4589 34.0911ZM66.0833 59.5452C66.0833 62.3527 63.8074 64.6285 61 64.6285C58.1925 64.6285 55.9167 62.3527 55.9167 59.5452C55.9167 56.7378 58.1925 54.4619 61 54.4619C63.8074 54.4619 66.0833 56.7378 66.0833 59.5452ZM61 73.5244C63.1056 73.5244 64.8125 75.2313 64.8125 77.3369V102.754C64.8125 104.859 63.1056 106.566 61 106.566C58.8944 106.566 57.1875 104.859 57.1875 102.754V77.3369C57.1875 75.2313 58.8944 73.5244 61 73.5244Z" fill="#E63131"/>
</svg>
