<svg width="35" height="35" viewBox="0 0 35 35" fill="none" xmlns="http://www.w3.org/2000/svg">
<path d="M22.1467 12.0163L14.8179 19.3622L11.9992 16.5434C11.846 16.3646 11.6576 16.2193 11.4456 16.1168C11.2337 16.0143 11.0028 15.9566 10.7676 15.9476C10.5323 15.9385 10.2977 15.9781 10.0785 16.064C9.85925 16.1499 9.66015 16.2802 9.49367 16.4466C9.32718 16.6131 9.19691 16.8122 9.11102 17.0314C9.02514 17.2507 8.98549 17.4853 8.99458 17.7205C9.00367 17.9558 9.06129 18.1867 9.16383 18.3986C9.26637 18.6106 9.41161 18.799 9.59044 18.9522L13.605 22.9838C13.7647 23.1422 13.954 23.2674 14.1621 23.3524C14.3702 23.4375 14.5931 23.4805 14.8179 23.4792C15.2661 23.4774 15.6956 23.2994 16.0138 22.9838L24.5554 14.4422C24.7156 14.2834 24.8427 14.0944 24.9294 13.8862C25.0161 13.6781 25.0608 13.4548 25.0608 13.2292C25.0608 13.0037 25.0161 12.7804 24.9294 12.5723C24.8427 12.3641 24.7156 12.1751 24.5554 12.0163C24.2354 11.6982 23.8024 11.5196 23.3511 11.5196C22.8998 11.5196 22.4668 11.6982 22.1467 12.0163ZM17.5 0.416748C14.1213 0.416748 10.8184 1.41867 8.00904 3.29581C5.1997 5.17295 3.01008 7.841 1.71709 10.9626C0.424089 14.0841 0.085782 17.519 0.744946 20.8329C1.40411 24.1467 3.03114 27.1907 5.42029 29.5798C7.80943 31.969 10.8534 33.596 14.1672 34.2552C17.4811 34.9143 20.916 34.576 24.0375 33.283C27.1591 31.99 29.8272 29.8004 31.7043 26.9911C33.5814 24.1817 34.5834 20.8788 34.5834 17.5001C34.5834 15.2567 34.1415 13.0352 33.283 10.9626C32.4244 8.88993 31.1661 7.00667 29.5798 5.42034C27.9934 3.83401 26.1102 2.57566 24.0375 1.71714C21.9649 0.858622 19.7434 0.416748 17.5 0.416748ZM17.5 31.1667C14.797 31.1667 12.1547 30.3652 9.90723 28.8635C7.65976 27.3618 5.90807 25.2273 4.87367 22.7301C3.83928 20.2328 3.56863 17.4849 4.09596 14.8338C4.62329 12.1828 5.92492 9.74761 7.83624 7.83629C9.74755 5.92497 12.1827 4.62335 14.8338 4.09602C17.4849 3.56868 20.2328 3.83933 22.73 4.87373C25.2273 5.90813 27.3617 7.65982 28.8634 9.90729C30.3652 12.1548 31.1667 14.7971 31.1667 17.5001C31.1667 21.1247 29.7268 24.6009 27.1638 27.1639C24.6008 29.7269 21.1247 31.1667 17.5 31.1667Z" fill="#34B71E"/>
</svg>
